<?xml version="1.0" standalone="no"?>
<!DOCTYPE svg PUBLIC "-//W3C//DTD SVG 20010904//EN"
 "http://www.w3.org/TR/2001/REC-SVG-20010904/DTD/svg10.dtd">
<svg version="1.0" xmlns="http://www.w3.org/2000/svg"
 width="150.000000pt" height="150.000000pt" viewBox="0 0 150.000000 150.000000"
 preserveAspectRatio="xMidYMid meet">
<metadata>
Created by potrace 1.14, written by Peter Selinger 2001-2017
</metadata>
<g transform="translate(0.000000,150.000000) scale(0.100000,-0.100000)"
fill="#000000" stroke="none">
<path d="M216 1069 c-90 -24 -140 -99 -136 -204 2 -57 26 -93 100 -148 80 -59
101 -96 79 -135 -16 -30 -57 -41 -70 -20 -5 7 -9 32 -9 54 l0 41 -69 1 c-77 1
-81 -3 -81 -83 0 -89 62 -138 175 -139 60 0 78 4 119 28 39 23 54 40 78 90 16
33 27 54 24 45 -6 -22 5 -35 35 -42 18 -5 31 -2 39 8 11 13 15 13 33 0 12 -8
27 -15 34 -15 18 0 44 30 37 42 -4 7 -2 8 5 4 6 -4 10 -14 9 -21 -2 -8 0 -14
5 -14 24 -2 29 1 23 17 -5 15 -5 15 6 1 7 -8 21 -18 31 -22 15 -5 17 0 17 38
0 33 -4 45 -15 45 -8 0 -15 -8 -15 -17 0 -15 -1 -15 -14 2 -15 21 -52 14 -40
-7 4 -7 -2 -5 -13 5 -31 27 -61 29 -77 5 -9 -12 -13 -25 -10 -30 3 -4 -1 -8
-10 -8 -8 0 -21 -3 -30 -6 -12 -4 -16 0 -16 15 0 18 4 20 25 15 28 -7 34 10 9
24 -19 11 -55 4 -67 -12 -4 -6 -5 0 -4 14 6 36 -12 91 -36 118 -12 13 -50 44
-84 68 -63 45 -81 74 -68 113 8 25 41 37 60 21 8 -7 15 -28 15 -46 l0 -34 70
0 c75 0 72 -3 73 63 0 25 3 27 44 27 l44 0 -6 -37 c-11 -72 -18 -138 -19 -183
l-1 -45 61 -1 62 -1 6 56 c4 31 10 74 12 96 3 22 7 49 9 60 2 11 4 28 4 38 1
14 11 17 56 17 50 0 55 2 56 23 0 12 2 33 5 46 2 14 -1 28 -8 33 -7 4 -82 8
-165 8 l-153 0 -6 -38 -6 -38 -35 33 c-19 18 -44 34 -56 34 -78 5 -116 4 -141
-2z m359 -469 c0 -7 -6 -15 -12 -17 -8 -3 -13 4 -13 17 0 13 5 20 13 18 6 -3
12 -11 12 -18z"/>
<path d="M815 1068 c-4 -14 -35 -237 -42 -309 -3 -33 -1 -48 9 -51 18 -7 285
-4 292 2 11 12 14 80 3 87 -6 3 -46 6 -89 6 -75 0 -79 1 -76 21 3 19 10 21 72
24 75 2 86 9 86 54 0 35 -11 41 -81 40 -51 0 -59 2 -59 19 0 17 8 19 90 19 86
0 90 1 91 23 0 12 2 31 4 42 2 11 -1 23 -8 27 -22 14 -287 10 -292 -4z"/>
<path d="M1146 1053 c-6 -32 -13 -86 -22 -158 -7 -59 -10 -85 -19 -142 -4 -24
-3 -44 2 -44 4 -1 34 -3 65 -4 62 -3 68 3 68 73 0 18 5 32 13 33 6 0 38 2 69
4 94 5 148 59 148 147 -1 87 -46 114 -204 117 l-114 2 -6 -28z m201 -94 c5
-25 -13 -40 -50 -43 -38 -4 -46 8 -31 48 8 21 78 16 81 -5z"/>
<path d="M733 642 c-29 -4 -31 -42 -3 -49 11 -3 20 -9 20 -15 0 -5 -9 -4 -20
2 -22 12 -27 1 -8 -18 17 -17 43 -15 58 3 10 12 10 19 2 27 -18 18 -14 28 8
28 15 0 20 -7 20 -29 0 -17 4 -32 9 -36 12 -7 26 14 26 39 0 11 6 21 13 24 8
2 12 -7 12 -27 0 -17 5 -31 10 -31 6 0 13 0 18 0 4 0 7 4 7 9 0 5 3 13 8 17 4
4 7 0 7 -9 0 -9 5 -17 10 -17 6 0 13 -1 17 -2 7 -3 5 73 -2 80 -6 6 -146 5
-152 -1 -3 -4 -13 -3 -22 1 -9 5 -26 6 -38 4z"/>
<path d="M1072 637 c-5 -7 -12 -19 -15 -27 -4 -10 -6 -7 -6 8 -1 14 -7 22 -19
22 -13 0 -18 -7 -18 -27 1 -14 -5 -28 -13 -31 -10 -3 -13 3 -9 27 4 25 1 31
-14 31 -23 0 -25 -52 -2 -74 21 -21 40 -20 64 4 11 11 20 15 20 10 0 -6 11
-15 25 -22 19 -8 28 -8 40 2 23 19 18 33 -10 26 -21 -5 -25 -3 -25 14 0 17 4
19 26 14 20 -5 25 -3 22 7 -6 18 -55 30 -66 16z"/>
<path d="M1155 640 c-16 -6 -16 -7 -1 -22 9 -9 16 -27 16 -41 0 -14 6 -24 15
-24 10 0 15 11 15 32 0 21 5 32 15 32 10 0 15 -10 15 -28 0 -34 19 -49 27 -21
5 20 5 20 24 1 24 -24 44 -24 69 1 14 14 20 16 20 6 0 -21 30 -29 30 -8 1 15
2 15 13 2 24 -30 37 -22 37 25 0 33 -4 45 -15 45 -8 0 -15 -8 -15 -17 -1 -17
-1 -17 -11 0 -14 24 -39 22 -39 -4 0 -19 -2 -18 -23 6 -19 23 -26 25 -49 16
-14 -5 -28 -18 -31 -28 -4 -14 -5 -13 -6 5 -1 16 -7 23 -18 21 -10 -1 -20 0
-23 1 -14 5 -49 6 -65 0z m175 -34 c0 -16 -18 -31 -27 -22 -8 8 5 36 17 36 5
0 10 -6 10 -14z"/>
<path d="M429 508 c-10 -19 -9 -20 17 -14 l29 8 -30 -28 c-28 -25 -28 -28 -10
-34 11 -4 32 -4 46 0 14 4 33 3 43 -2 11 -6 22 -6 32 2 10 9 18 9 27 2 14 -12
67 -4 67 9 0 5 -5 9 -11 9 -5 0 -7 5 -4 10 7 12 26 14 24 3 -3 -21 3 -31 20
-36 29 -7 51 11 51 43 0 17 -7 33 -16 38 -22 12 -54 4 -54 -14 0 -10 -6 -8
-20 6 -24 24 -33 25 -50 5 -11 -13 -15 -13 -33 0 -13 9 -26 11 -37 5 -11 -6
-30 -6 -49 0 -26 7 -33 6 -42 -12z m121 -15 c0 -5 -5 -15 -10 -23 -8 -12 -10
-11 -10 8 0 12 5 22 10 22 6 0 10 -3 10 -7z m54 -17 c-14 -11 -21 -11 -26 -3
-5 8 1 14 15 18 30 8 35 2 11 -15z m96 2 c0 -16 -3 -19 -11 -11 -6 6 -8 16 -5
22 11 17 16 13 16 -11z m-200 -8 c0 -13 -5 -18 -15 -14 -11 5 -12 9 -2 20 16
18 17 17 17 -6z"/>
<path d="M785 514 c-34 -34 3 -91 48 -75 34 13 34 33 1 29 -21 -2 -29 1 -29
12 0 14 4 15 38 12 8 -1 19 -13 25 -26 14 -31 47 -39 73 -17 20 16 21 20 8 47
-16 32 -33 37 -65 18 -14 -8 -25 -9 -31 -3 -17 17 -52 18 -68 3z m135 -34 c0
-19 -11 -26 -23 -14 -8 8 3 34 14 34 5 0 9 -9 9 -20z"/>
<path d="M1043 517 c-9 -11 -9 -64 -1 -73 9 -8 58 -11 58 -3 0 21 -2 24 -16
21 -10 -2 -14 6 -14 27 0 33 -13 47 -27 28z"/>
<path d="M1098 513 c-8 -10 -6 -13 6 -13 11 0 16 -9 16 -31 0 -24 4 -30 18
-27 11 2 17 12 16 31 -1 17 4 27 12 27 9 0 14 -11 14 -30 0 -30 9 -36 50 -30
14 1 40 27 40 40 0 3 -6 15 -14 25 -10 15 -27 19 -80 20 -44 1 -71 -3 -78 -12z
m132 -34 c0 -11 -4 -17 -10 -14 -5 3 -10 13 -10 21 0 8 5 14 10 14 6 0 10 -9
10 -21z"/>
<path d="M965 460 c-4 -6 -3 -16 3 -22 6 -6 12 -6 17 2 4 6 3 16 -3 22 -6 6
-12 6 -17 -2z"/>
<path d="M1002 446 c1 -15 7 -25 13 -23 14 5 13 39 -2 44 -9 3 -12 -4 -11 -21z"/>
<path d="M1282 461 c-10 -6 -10 -10 2 -20 16 -13 29 -2 18 16 -4 7 -13 8 -20
4z"/>
</g>
</svg>
